<?xml version="1.0" encoding="UTF-8"?>
<svg id="_图层_2" data-name="图层 2" xmlns="http://www.w3.org/2000/svg" viewBox="0 0 668.16 255.61">
  <defs>
    <style>
      .cls-1 {
        fill: #fefefe;
      }
    </style>
  </defs>
  <g id="_图层_1-2" data-name="图层 1">
    <g>
      <g>
        <path class="cls-1" d="M651.71,192.84h15.87v19.95c-16.36.11-32.4.31-48.68-1.42-3.74-.4-8.23-1.83-11.85-1.79-4.59.05-10.98,1.81-15.87,2.3-13.62,1.36-27.35.8-41.03.91v-19.95h17.68c-8.44-8.66-14.67-19.6-16.32-31.74h29.47c4.84,18.49,27.19,25.8,43.21,16.23,6.94-4.14,12.79-12.44,14.37-20.31h-87.95v-16.32h106.32c4.84,0,10.36,7.59,10.99,12.13,1.84,13.34-7.05,30.69-16.2,40.01Z"/>
        <path class="cls-1" d="M311.69,212.79v-44.43c12.78-1.55,24.32-9.34,32.18-19.28,9.6-12.14,11.06-24.13,13.1-39.04,3.06-22.3,4.25-44.87,6.41-67.27h30.6l.69,1.13c-2.8,26.71-4.64,53.62-8.7,80.17-4.69,30.63-13.87,62.03-41.67,79.38-5.53,3.45-18.79,9.33-25.12,9.33h-7.48Z"/>
        <path class="cls-1" d="M454.04,42.78c-.98,22.17-2.63,44.36-4.99,66.41-3.75,34.97-7.93,77.03-32.86,103.6h-50.1c12.82-9.06,25.07-18.89,33.92-32.05,12.47-18.54,16.31-40.7,19.07-62.54,3.1-24.62,4.46-49.52,5.96-74.29l.68-1.13h28.34Z"/>
        <polygon class="cls-1" points="545.62 42.78 545.62 77.23 551.4 77.89 551.07 96.28 545.62 96.27 545.62 212.79 517.06 212.79 517.06 42.78 545.62 42.78"/>
        <path class="cls-1" d="M555.15,93.55v-37.86c0-6.2,5.28-12.67,11.27-12.86,26.77,0,54.74-.08,81.35-.08,18.91,0,17.56,6.12,17.56,46.95,0,2.78-1.45,3.84-2.5,3.84h-107.68ZM637.66,56.83h-54.18c-1.33,1.32-.45,3.69-.68,5.44h54.86v-5.44ZM637.66,74.51h-54.86c.26,1.88-.68,4.45.68,5.89h54.18v-5.89Z"/>
        <path class="cls-1" d="M666.67,98.54v33.12c0,2.48-2.03,4.51-4.51,4.51h-111.55v-37.63h116.06ZM582.8,111.69h-6.8v11.33h6.8v-11.33ZM611.36,111.69h-6.8v11.33h6.8v-11.33ZM640.38,111.69h-6.8v11.33h6.8v-11.33Z"/>
        <polygon class="cls-1" points="496.21 212.79 473.09 212.79 441.43 171.65 449.06 129.37 496.21 186.72 496.21 212.79"/>
        <path class="cls-1" d="M512.98,68.62l.02,67.34c-.86,14.08-7.19,28.28-22.69,30.13v-28.11c4.29-1.14,9.07-9.89,9.07-13.83v-54.86h0c.44-.44,1.03-.68,1.64-.68h11.96Z"/>
        <path class="cls-1" d="M388.54,125.29l18.69,26.57c-2.14,12.65-7.02,26.44-17.33,34.63l-11.97-19.71c3.67-9.65,6.39-19.55,8.35-29.69.31-1.63,1.51-11.63,2.26-11.8Z"/>
      </g>
      <g>
        <path class="cls-1" d="M15.39,209.23l-9.25-18.6c-.87-1.75-.18-3.87,1.55-4.78,69.85-36.63,66.2-99.98,66.01-102.69v.16s22.85-1.97,22.85-1.97c11.66-1,21.31,8.97,19.89,20.59-1.13,9.21-3.41,20.65-7.9,33.19-8.62,24.09-27.13,56.45-66.84,81.52-9.22,5.82-21.45,2.34-26.3-7.42Z"/>
        <path class="cls-1" d="M88.25,209.23l-9.25-18.6c-.87-1.75-.18-3.87,1.55-4.78,69.85-36.63,66.2-99.98,66.01-102.69v.16s22.85-1.97,22.85-1.97c11.66-1,21.31,8.97,19.89,20.59-1.13,9.21-3.41,20.65-7.9,33.19-8.62,24.09-27.13,56.45-66.84,81.52-9.22,5.82-21.45,2.34-26.3-7.42Z"/>
        <path class="cls-1" d="M207.51,215.66c-11.17-11.93-26.79-26.17-36.21-34.44-2.53-2.22-2.8-6.07-.61-8.63l9.98-11.66c8.03-9.38,22.22-10.24,31.33-1.91,8.79,8.04,19.47,18.21,28.39,27.84,6,6.49,5.11,16.74-1.92,22.09l-10.97,8.36c-6.11,4.65-14.75,3.95-19.99-1.65Z"/>
        <path class="cls-1" d="M143.46,60.51c-.84-4.69-1.72-9.35-2.44-13.06-.55-2.85,1.3-5.6,4.14-6.17,4.84-.97,12.37-2.47,19.44-3.88,10.11-2.02,19.92,4.65,21.75,14.8.06.33.12.65.18.98,1.87,10.45-5.44,20.31-15.98,21.56-2.25.27-4.55.54-6.78.8-9.68,1.15-18.59-5.44-20.31-15.04Z"/>
        <path class="cls-1" d="M70.51,62.64c-.84-4.69-1.72-9.35-2.44-13.06-.55-2.85,1.3-5.6,4.14-6.17,4.84-.97,12.37-2.47,19.44-3.88,10.11-2.02,19.92,4.65,21.75,14.8.06.33.12.65.18.98,1.87,10.45-5.44,20.31-15.98,21.56-2.25.27-4.55.54-6.78.8-9.68,1.15-18.59-5.44-20.31-15.04Z"/>
        <path class="cls-1" d="M14.45,170.81c-3.44,1.3-7.28-.53-8.4-4.03-4.02-12.55-6.05-25.63-6.05-38.98C0,57.33,57.33,0,127.81,0s127.81,57.33,127.81,127.81c0,13.34-2.03,26.42-6.05,38.97-1.12,3.5-4.96,5.33-8.4,4.03h0c-3.2-1.21-4.87-4.72-3.83-7.98,3.61-11.28,5.43-23.03,5.43-35.03,0-63.39-51.57-114.96-114.96-114.96S12.85,64.42,12.85,127.81c0,12,1.83,23.75,5.43,35.03,1.04,3.26-.63,6.76-3.83,7.98h0Z"/>
        <path class="cls-1" d="M127.81,255.61c-27.24,0-53.87-8.78-75.71-24.83-2.96-2.17-3.46-6.4-1.13-9.23h0c2.16-2.64,6.01-3.12,8.76-1.1,19.64,14.44,43.59,22.32,68.09,22.32,23.05,0,45.04-6.7,63.98-19.43,2.84-1.91,6.67-1.28,8.73,1.46h0c2.2,2.94,1.51,7.13-1.54,9.18-21.07,14.17-45.53,21.63-71.17,21.63Z"/>
      </g>
    </g>
  </g>
</svg>